# xmcd
#
# Track frame offsets: 
#        150
#        19682
#        45862
#        76760
#        103973
#        132321
#        160668
#        190716
#        218495
#        237772
#        264985
#        287663
#        309207
#        331884
#
# Disc length: 4681 seconds
#
# Revision: 3
# Processed by: cddbd v1.5.2PL0 Copyright (c) Steve Scherf et al.
# Submitted via: ExactAudioCopyFreeDBPlugin 1.0
#
DISCID=a712470e
DTITLE=Various Artist - Most Rated 2005
DYEAR=2005
DGENRE=House
TTITLE0=Rebirth - Evil Vibrations
TTITLE1=Leah McCrae - All This Love That I'm Giving (Richard Earnshaw 
TTITLE1=Vocal 12")
TTITLE2=Jamie Lewis - Mischelle Weeks - Be Thankful (Jamie Lewis Main M
TTITLE2=ix)
TTITLE3=Barbara Tucker - UDA - Most Precious Love (DF Future 3000 Mix)
TTITLE4=Gary 'Nesta' Pine - Bob Sinclar - Love Generation (Club Mix)
TTITLE5=Torre - Corps à Corps (CM Erodisco Vocal Mix)
TTITLE6=Haji And Emanuel - Take Me Away (Vocal Mix)
TTITLE7=Lois - Mish Mash - Speechless (Extended Mix)
TTITLE8=Mr. V - Louie Vega - V Gets Jazzy (Club Mix)
TTITLE9=Quentin Harris - Let's Be Young (Original Mix)
TTITLE10=Martin Solveig - Everybody (Pete Heller's Phela Voxx Mix)
TTITLE11=Rasmus Faber - Get Over Here (Axwell Club Mix)
TTITLE12=Africanism Allstars - Ben Onono - Summer Moon
TTITLE13=Mikael Nordgren - Jerome Sydenham - Stockholm - Go Bang!
EXTD=YEAR: 2005
EXTT0=
EXTT1=
EXTT2=
EXTT3=
EXTT4=
EXTT5=
EXTT6=
EXTT7=
EXTT8=
EXTT9=
EXTT10=
EXTT11=
EXTT12=
EXTT13=
PLAYORDER=
